<?xml version="1.0" standalone="no"?><!DOCTYPE svg PUBLIC "-//W3C//DTD SVG 1.1//EN" "http://www.w3.org/Graphics/SVG/1.1/DTD/svg11.dtd"><svg t="1538648733442" class="icon" style="" viewBox="0 0 1024 1024" version="1.1" xmlns="http://www.w3.org/2000/svg" p-id="1091" xmlns:xlink="http://www.w3.org/1999/xlink" width="200" height="200"><defs><style type="text/css"></style></defs><path d="M512 371.2c-76.8 0-140.8 64-140.8 140.8 0 76.8 64 140.8 140.8 140.8 76.8 0 140.8-64 140.8-140.8C652.8 435.2 588.8 371.2 512 371.2zM512 601.6c-51.2 0-89.6-38.4-89.6-89.6 0-51.2 38.4-89.6 89.6-89.6s89.6 38.4 89.6 89.6C601.6 563.2 563.2 601.6 512 601.6z" p-id="1092"></path><path d="M864 448l-70.4 0c-6.4-38.4-25.6-70.4-44.8-102.4l51.2-51.2c6.4-6.4 6.4-19.2 0-25.6l-57.6-57.6c-6.4-6.4-19.2-6.4-25.6 0l-51.2 51.2c-32-19.2-64-32-96-38.4L569.6 153.6c0-12.8-6.4-19.2-19.2-19.2L473.6 134.4c-12.8 0-19.2 6.4-19.2 19.2l0 70.4C416 236.8 384 249.6 352 268.8L300.8 217.6c-6.4-6.4-19.2-6.4-25.6 0L224 275.2c-6.4 6.4-6.4 19.2 0 25.6l44.8 44.8C249.6 377.6 236.8 416 224 448L160 448C147.2 448 140.8 460.8 140.8 467.2l0 76.8c0 12.8 6.4 19.2 19.2 19.2l64 0c6.4 38.4 25.6 76.8 44.8 115.2l-51.2 51.2c-6.4 6.4-6.4 19.2 0 25.6l57.6 57.6c6.4 6.4 19.2 6.4 25.6 0l51.2-51.2c32 19.2 70.4 38.4 108.8 44.8l0 70.4c0 12.8 6.4 19.2 19.2 19.2l76.8 0c12.8 0 19.2-6.4 19.2-19.2l0-70.4c38.4-6.4 76.8-25.6 108.8-51.2l44.8 44.8c6.4 6.4 19.2 6.4 25.6 0l57.6-57.6c6.4-6.4 6.4-19.2 0-25.6l-51.2-51.2c19.2-32 32-64 38.4-102.4l70.4 0c12.8 0 19.2-6.4 19.2-19.2L889.6 467.2C883.2 460.8 876.8 448 864 448zM512 761.6c-134.4 0-249.6-108.8-249.6-249.6 0-134.4 108.8-249.6 249.6-249.6 134.4 0 249.6 108.8 249.6 249.6C761.6 646.4 646.4 761.6 512 761.6z" p-id="1093"></path></svg>